<svg width="1728" height="1117" viewBox="0 0 1728 1117" fill="none" xmlns="http://www.w3.org/2000/svg">
<path d="M404 124C359.5 74 481.5 -12 1761 101L1813.5 -85L-458.5 -110.549V1188.5C-316 1196.67 102.1 1208.1 248.5 1188.5C431.5 1164 473.425 1049.38 454 1003.5C430.5 948 202 1040.5 140 932C99.0873 860.403 241.5 868 275 816C308.5 764 60.5 743 -71 776.5C-202.5 810 -107.5 593 -110.5 559.5C-113.5 526 116.5 542.5 61.5 487.5C6.5 432.5 37 358 275 324C435.5 301.071 464.437 191.907 404 124Z" fill="#1C8767"/>
</svg>
