<svg width="1108" height="832" viewBox="0 0 1108 832" fill="none" xmlns="http://www.w3.org/2000/svg">
<rect x="1" width="1107" height="832" rx="20" fill="#BDDD53"/>
<path d="M742.36 149.358C570.895 98.8657 237.592 102.365 192.114 182.852C120.93 308.832 94.9502 452.309 112.097 580.788C129.243 709.267 344.354 610.783 574.013 671.773C803.672 732.763 1068.14 670.773 969.941 454.308C871.738 237.843 913.825 199.849 742.36 149.358Z" stroke="#E4EFA8" stroke-width="50"/>
<path d="M1060.65 656.333C1091.94 706.333 1056.65 743 1033.34 765C992.722 758.333 982.733 702.333 997.384 677C1003.24 666.867 1029.57 636.778 1042 623C1042.67 624.333 1041.99 626.521 1060.65 656.333Z" fill="#EE702D" stroke="#EE702D" stroke-width="2"/>
<path d="M1036.1 793.573C1038.08 808.773 1040.06 801.504 1021.58 799.521C1022.9 798.199 1021.58 749.956 1020.26 745.33C1018.94 740.704 1014.98 738.722 1018.28 739.382C1019.95 739.717 1020.48 736.547 1020.53 733.113C1020.33 730.962 1020.26 728.81 1020.26 727.487C1020.42 729.027 1020.56 731.115 1020.53 733.113C1020.72 735.258 1021.05 737.402 1021.58 738.722C1022.9 742.026 1024.88 734.756 1026.2 729.469C1027.26 725.24 1025.76 716.693 1024.88 712.948C1025.76 714.71 1027.79 718.499 1028.84 719.556C1029.9 720.614 1033.24 711.626 1034.78 707C1034.34 709.864 1033.33 716.12 1032.8 718.235C1032.14 720.878 1030.82 742.687 1031.48 744.008C1032.01 745.066 1041.38 729.91 1046 722.2L1036.1 741.365C1038.96 739.823 1044.68 736.871 1044.68 737.4C1044.68 738.061 1038.74 744.008 1034.78 747.313C1030.82 750.617 1034.12 778.373 1036.1 793.573Z" fill="#361A0B"/>
<path d="M1021.58 799.521C1040.06 801.504 1038.08 808.773 1036.1 793.573C1034.12 778.373 1030.82 750.617 1034.78 747.313C1038.74 744.008 1044.68 738.061 1044.68 737.4C1044.68 736.871 1038.96 739.823 1036.1 741.365L1046 722.2C1041.38 729.91 1032.01 745.066 1031.48 744.008C1030.82 742.687 1032.14 720.878 1032.8 718.235C1033.33 716.12 1034.34 709.864 1034.78 707C1033.24 711.626 1029.9 720.614 1028.84 719.556C1027.79 718.499 1025.76 714.71 1024.88 712.948C1025.76 716.693 1027.26 725.24 1026.2 729.469C1024.88 734.756 1022.9 742.026 1021.58 738.722C1020.53 736.078 1020.26 730.13 1020.26 727.487C1020.7 731.672 1020.92 739.911 1018.28 739.382C1014.98 738.722 1018.94 740.704 1020.26 745.33C1021.58 749.956 1022.9 798.199 1021.58 799.521Z" stroke="#361A0B" stroke-width="2"/>
<path d="M1037.78 640.513C1037.59 642.504 1037.33 645.325 1037.22 646.487" stroke="#CD5F24" stroke-width="2" stroke-linecap="round"/>
<path d="M1048.56 651C1048.37 652.991 1048.11 655.812 1048 656.974" stroke="#CD5F24" stroke-width="2" stroke-linecap="round"/>
<path d="M1024.56 655C1024.37 656.991 1024.11 659.812 1024 660.974" stroke="#CD5F24" stroke-width="2" stroke-linecap="round"/>
<path d="M1035.34 665.487C1035.15 667.479 1034.89 670.3 1034.78 671.461" stroke="#CD5F24" stroke-width="2" stroke-linecap="round"/>
<path d="M1047.78 670C1047.59 671.737 1047.33 674.198 1047.22 675.212" stroke="#CD5F24" stroke-width="2" stroke-linecap="round"/>
<path d="M1058.56 679.149C1058.37 680.887 1058.11 683.348 1058 684.361" stroke="#CD5F24" stroke-width="2" stroke-linecap="round"/>
<path d="M1031.56 693C1031.37 694.737 1031.11 697.198 1031 698.212" stroke="#CD5F24" stroke-width="2" stroke-linecap="round"/>
<path d="M1045.34 691.788C1045.15 693.526 1044.89 695.987 1044.78 697" stroke="#CD5F24" stroke-width="2" stroke-linecap="round"/>
<path d="M1006.56 683C1006.37 684.991 1006.11 687.812 1006 688.974" stroke="#CD5F24" stroke-width="2" stroke-linecap="round"/>
<path d="M1014.56 697C1014.37 698.991 1014.11 701.812 1014 702.974" stroke="#CD5F24" stroke-width="2" stroke-linecap="round"/>
<path d="M1051.56 708C1051.37 709.737 1051.11 712.198 1051 713.212" stroke="#CD5F24" stroke-width="2" stroke-linecap="round"/>
<path d="M1063.56 701C1063.37 702.737 1063.11 705.198 1063 706.212" stroke="#CD5F24" stroke-width="2" stroke-linecap="round"/>
<path d="M1001.56 712C1001.37 713.737 1001.11 716.198 1001 717.212" stroke="#CD5F24" stroke-width="2" stroke-linecap="round"/>
<path d="M1022.56 674C1022.37 675.737 1022.11 678.198 1022 679.212" stroke="#CD5F24" stroke-width="2" stroke-linecap="round"/>
<path d="M55.1249 615.514C-13.8656 599.704 -16.0221 517.059 43.6259 498.374C111.897 476.988 181.607 606.89 55.1249 615.514Z" fill="#5EA644" stroke="#5EA644" stroke-width="2" stroke-linecap="round"/>
<path d="M78.8396 647.135H47.219C45.0631 644.979 49.375 606.172 50.0937 602.579C50.8123 598.985 33.5647 573.833 31.4088 572.395C29.2528 570.958 35.7207 568.083 37.8766 568.083C40.0326 568.083 40.0326 575.27 42.1885 573.833C44.3445 572.395 45.7817 575.27 45.0631 579.582C44.3444 583.894 52.9682 594.673 55.1242 594.673C57.2801 594.673 56.5615 573.114 56.5615 571.677C56.5615 570.239 50.8123 566.646 52.2496 565.927C53.6869 565.209 56.5615 568.083 56.5615 566.646C56.5615 565.209 60.8734 561.615 63.0293 562.334C65.1853 563.053 64.4666 592.517 65.9039 592.517C67.3412 592.517 70.9345 575.27 70.9345 573.833C70.9345 572.395 79.5583 567.365 80.2769 568.083C80.9956 568.802 75.965 573.114 74.5277 575.27C73.0904 577.426 74.5277 588.206 73.8091 592.517C73.0904 596.829 71.6531 597.548 73.8091 598.267C75.965 598.985 96.8059 577.426 98.2432 579.582C99.6805 581.738 81.7142 599.704 78.8396 604.016C76.54 607.465 77.8814 634.199 78.8396 647.135Z" fill="#703E17" stroke="#703E17" stroke-width="2" stroke-linecap="round"/>
</svg>
