<svg width="425" height="688" viewBox="0 0 425 688" fill="none" xmlns="http://www.w3.org/2000/svg">
<mask id="mask0_37_204" style="mask-type:alpha" maskUnits="userSpaceOnUse" x="0" y="0" width="425" height="688">
<rect width="425" height="688" rx="20" fill="#00BD8B"/>
</mask>
<g mask="url(#mask0_37_204)">
<rect width="425" height="688" rx="20" fill="#00BD8B"/>
<path d="M350.107 483.463C344.282 481.512 340.718 481.512 334.893 483.463C320.684 488.222 321.3 518.338 325.691 548.05C314.574 520.148 299.991 493.792 285.313 496.808C279.296 498.045 276.213 499.834 272.155 504.445C262.394 515.533 277.465 540.703 295.822 563.924C272.561 545.618 247.357 530.603 236.29 540.388C231.688 544.456 229.906 547.543 228.683 553.563C225.719 568.147 251.729 582.575 279.444 593.602C249.929 589.293 220.189 588.781 215.463 602.893C213.512 608.718 213.512 612.282 215.463 618.107C220.189 632.219 249.929 631.707 279.444 627.398C251.729 638.425 225.719 652.853 228.683 667.437C229.906 673.457 231.688 676.544 236.29 680.612C247.357 690.397 272.56 675.382 295.821 657.077C277.464 680.297 262.394 705.467 272.154 716.556C276.213 721.166 279.296 722.955 285.312 724.192C299.991 727.208 314.575 700.851 325.692 672.948C321.301 702.662 320.684 732.778 334.893 737.537C340.718 739.488 344.282 739.488 350.107 737.537C364.316 732.778 363.699 702.66 359.308 672.946C370.425 700.85 385.009 727.208 399.688 724.192C405.705 722.955 408.787 721.166 412.846 716.556C422.606 705.467 407.536 680.297 389.18 657.077C412.441 675.382 437.643 690.397 448.71 680.612C453.312 676.544 455.094 673.457 456.318 667.437C459.282 652.853 433.272 638.425 405.557 627.398C435.072 631.707 464.811 632.219 469.537 618.107C471.488 612.282 471.488 608.718 469.537 602.893C464.811 588.781 435.072 589.293 405.557 593.602C433.272 582.575 459.281 568.147 456.318 553.563C455.094 547.543 453.312 544.456 448.71 540.388C437.643 530.603 412.44 545.618 389.179 563.924C407.535 540.703 422.606 515.533 412.846 504.445C408.787 499.834 405.704 498.045 399.688 496.808C385.009 493.792 370.425 520.149 359.308 548.052C363.699 518.339 364.316 488.222 350.107 483.463Z" fill="#12A880"/>
</g>
</svg>
