<svg width="456" height="743" viewBox="0 0 456 743" fill="none" xmlns="http://www.w3.org/2000/svg">
<rect x="-23" y="-15" width="496" height="780" fill="#F9F154"/>
<path d="M408.722 406.029C400.646 403.324 395.704 403.324 387.628 406.029C367.925 412.627 368.78 454.385 374.868 495.584C359.454 456.895 339.233 420.35 318.88 424.533C310.538 426.247 306.263 428.728 300.636 435.121C287.103 450.496 307.999 485.396 333.452 517.594C301.199 492.212 266.253 471.392 250.907 484.959C244.526 490.6 242.055 494.88 240.359 503.227C236.249 523.45 272.314 543.455 310.743 558.745C269.818 552.769 228.582 552.06 222.029 571.628C219.324 579.704 219.324 584.646 222.029 592.722C228.582 612.29 269.818 611.58 310.743 605.605C272.314 620.895 236.249 640.9 240.359 661.123C242.055 669.469 244.526 673.749 250.907 679.391C266.252 692.958 301.198 672.138 333.451 646.757C307.998 678.954 287.102 713.853 300.635 729.229C306.263 735.622 310.537 738.102 318.88 739.817C339.233 744 359.454 707.453 374.869 668.764C368.78 709.964 367.925 751.722 387.628 758.321C395.704 761.026 400.646 761.026 408.722 758.321C428.425 751.722 427.569 709.962 421.481 668.761C436.895 707.452 457.117 744 477.47 739.817C485.813 738.102 490.087 735.622 495.715 729.229C509.248 713.853 488.352 678.954 462.9 646.757C495.152 672.138 530.098 692.958 545.443 679.391C551.824 673.749 554.295 669.469 555.991 661.123C560.101 640.9 524.036 620.895 485.608 605.605C526.532 611.58 567.767 612.29 574.321 592.722C577.026 584.646 577.026 579.704 574.321 571.628C567.767 552.06 526.532 552.769 485.608 558.745C524.036 543.455 560.101 523.45 555.991 503.227C554.295 494.88 551.824 490.6 545.443 484.959C530.097 471.392 495.152 492.212 462.898 517.594C488.351 485.396 509.248 450.496 495.714 435.121C490.087 428.728 485.812 426.247 477.47 424.533C457.117 420.35 436.895 456.896 421.481 495.586C427.569 454.386 428.424 412.627 408.722 406.029Z" fill="#FFFBA5"/>
</svg>
